<?xml version="1.0" standalone="no"?>
<!DOCTYPE svg PUBLIC "-//W3C//DTD SVG 1.1//EN" "http://www.w3.org/Graphics/SVG/1.1/DTD/svg11.dtd" >
<svg xmlns="http://www.w3.org/2000/svg" xmlns:xlink="http://www.w3.org/1999/xlink" version="1.1">
<metadata>
Created by FontForge 20180930 at Mon Oct  8 19:31:30 2018
 By root
House3009 (C) 1999 House Industries/Brand Design Co. Inc. http://www.houseind.com/ House Industries is a registered trademark of House Industries/Brand Design Co., Inc.
</metadata>
<defs>
<font id="HOUSE3009-Spaceport" horiz-adv-x="685" >
  <font-face 
    font-family="HOUSE3009"
    font-weight="550"
    font-style="italic"
    font-stretch="normal"
    units-per-em="1000"
    panose-1="2 0 6 5 2 0 0 9 0 4"
    ascent="800"
    descent="-200"
    x-height="738"
    cap-height="738"
    bbox="-142 -237 1156 1010"
    underline-thickness="20"
    underline-position="-133"
    slope="-12"
    unicode-range="U+0020-2122"
  />
    <missing-glyph />
    <glyph glyph-name="space" unicode=" " horiz-adv-x="300" 
 />
    <glyph glyph-name="space" unicode="&#xa0;" horiz-adv-x="300" 
 />
    <glyph glyph-name="numbersign" unicode="#" horiz-adv-x="759" 
d="M386 440l-67 -145h125l67 145h-125zM562 295h120l-48 -103h-120l-65 -140h-119l66 140h-125l-64 -140h-120l65 140h-123l47 103h124l68 145h-122l47 105h123l65 137h118l-63 -137h123l64 137h118l-63 -137h121l-50 -105h-119z" />
    <glyph glyph-name="dollar" unicode="$" horiz-adv-x="443" 
d="M284 684h108l-25 -93h78q21 0 31.5 -15t5.5 -35l-31 -121h-107l13 51q4 16 -12 16h-114q-16 0 -20 -12t12 -23l170 -114q13 -8 19.5 -25t2.5 -32l-25 -96q-3 -16 -16.5 -26.5t-29.5 -10.5h-90l-25 -95h-106l24 95h-77q-21 0 -32.5 14t-6.5 35l32 121h106l-13 -52
q-2 -6 2 -11t11 -5h115q7 0 11.5 4.5t6.5 8.5q2 6 0.5 11.5t-9.5 10.5l-173 114q-14 9 -19.5 25.5t-2.5 31.5l25 97q4 15 18 26.5t30 11.5h89z" />
    <glyph glyph-name="percent" unicode="%" horiz-adv-x="741" 
d="M601 202q3 15 -11 15h-54q-10 0 -13 -11l-27 -104q-3 -14 11 -14h54q11 0 13 9zM315 636q3 14 -11 14h-55q-4 0 -8 -2t-6 -8l-26 -104q-2 -6 2 -10.5t10 -4.5h54q4 0 8 3t5 7zM431 0q-22 0 -33.5 15t-6.5 36l54 212q5 17 20.5 29.5t33.5 12.5h167q22 0 33.5 -15t6.5 -37
l-54 -212q-5 -17 -20.5 -29t-33.5 -12h-167zM585 738q24 0 39 -9t21 -24t3 -34t-15 -38l-400 -633h-107l398 629q5 8 3 14.5t-12 6.5h-104l-45 -175q-5 -17 -20.5 -29t-33.5 -12h-169q-21 0 -32 14.5t-6 35.5l54 213q5 17 20 29t32 12h374z" />
    <glyph glyph-name="ampersand" unicode="&#x26;" horiz-adv-x="568" 
d="M371 833h180l-24 -95h130l-44 -171h-291q-13 0 -20 -6t-9 -12q-6 -21 13 -34l123 -83l-35 -137l-159 -70q-16 -7 -25 -15t-9 -20q0 -18 22 -18h289l-45 -172h-131l-24 -94h-179l24 94h-92q-35 0 -54 23t-10 58l43 166q7 25 27.5 50.5t45.5 36.5l101 44l-66 45
q-24 15 -34.5 42t-4.5 52l41 160q6 25 29.5 43t49.5 18h114z" />
    <glyph glyph-name="quotesingle" unicode="'" horiz-adv-x="264" 
d="M233 496h-126l62 242h184z" />
    <glyph glyph-name="parenleft" unicode="(" horiz-adv-x="295" 
d="M81 394q33 134 99 234t152 161h111q-30 -32 -61.5 -79t-59.5 -103.5t-51 -119t-38 -124.5q-14 -59 -21 -120t-7 -117.5t6.5 -103t20.5 -74.5h-92q-27 33 -46 82.5t-27 108.5t-5 124.5t19 130.5z" />
    <glyph glyph-name="parenright" unicode=")" horiz-adv-x="306" 
d="M298 358q-15 -66 -41 -127t-59.5 -113.5t-73 -95.5t-82.5 -74h-112q31 31 62 78.5t59 104t51 119t38 124.5q14 58 21 119.5t7.5 118t-6 102.5t-19.5 75h90q28 -32 47.5 -78t28.5 -101.5t6.5 -119.5t-17.5 -132z" />
    <glyph glyph-name="asterisk" unicode="*" horiz-adv-x="501" 
d="M324 737h108l-34 -133l135 45l7 -106q-38 -13 -69 -23q-14 -5 -26 -9t-22 -7q-11 -4 -22 -7l50 -105l-89 -55l-51 106l-105 -106l-77 70l103 106l-110 39l53 92l115 -41z" />
    <glyph glyph-name="plus" unicode="+" horiz-adv-x="533" 
d="M342 248l-37 -149h-155l38 149h-154l38 150h155l37 149h156l-38 -149h153l-38 -150h-155z" />
    <glyph glyph-name="comma" unicode="," horiz-adv-x="258" 
d="M77 -89h-101l81 89h-77l45 172h177l-44 -172z" />
    <glyph glyph-name="hyphen" unicode="-" horiz-adv-x="500" 
d="M463 246h-429l39 157h430z" />
    <glyph glyph-name="hyphen" unicode="&#xad;" horiz-adv-x="500" 
d="M463 246h-429l39 157h430z" />
    <glyph glyph-name="period" unicode="." horiz-adv-x="258" 
d="M24 172h178l-44 -172h-178z" />
    <glyph glyph-name="slash" unicode="/" horiz-adv-x="383" 
d="M114 0h-169l403 738h169z" />
    <glyph glyph-name="zero" unicode="0" horiz-adv-x="684" 
d="M210 198q-3 -11 3 -18.5t17 -7.5h190q12 0 23 8.5t14 19.5l87 340q3 11 -3 19t-17 8h-191q-12 0 -23 -9.5t-14 -20.5zM599 61q-6 -25 -29 -43t-49 -18h-456q-35 0 -54 23t-10 58l153 596q6 25 29 43t49 18h456q35 0 54 -23.5t10 -58.5z" />
    <glyph glyph-name="one" unicode="1" horiz-adv-x="335" 
d="M230 0h-180l140 540q3 11 -3.5 19t-17.5 8h-58l44 171h180q35 0 53 -23.5t9 -58.5z" />
    <glyph glyph-name="two" unicode="2" horiz-adv-x="668" 
d="M628 172l-44 -172h-609l63 247q3 12 10 25t17 25t22.5 21.5t25.5 15.5l404 178q17 8 26 16t10 20q1 9 -6 14t-18 5h-201q-12 0 -22.5 -9.5t-13.5 -20.5l-14 -52h-178l49 192q6 25 29 43t49 18h462q35 0 52.5 -23.5t9.5 -58.5l-42 -168q-7 -26 -29 -50.5t-46 -35.5
l-395 -176q-17 -8 -25 -15t-12 -23l-4 -16h430z" />
    <glyph glyph-name="three" unicode="3" horiz-adv-x="677" 
d="M706 488q-7 -25 -28 -50t-45 -36l-100 -44l67 -45q23 -16 34 -43t4 -52l-41 -157q-7 -25 -29.5 -43t-48.5 -18h-458q-34 0 -52.5 23t-9.5 58l51 202h179l-22 -85q-3 -11 3 -18.5t17 -7.5h201q25 0 31 17q7 20 -14 34l-139 92l30 119l179 78q17 8 26.5 16t9.5 20
q0 9 -6.5 14t-16.5 5h-197q-15 0 -24.5 -9.5t-12.5 -20.5l-13 -52h-179l50 192q7 25 29.5 43t48.5 18h456q35 0 54 -24t10 -58z" />
    <glyph glyph-name="four" unicode="4" horiz-adv-x="678" 
d="M720 418l-46 -172h-60l-63 -246h-180l63 246h-312q-35 0 -53.5 23t-9.5 58l105 411h178q-4 -14 -9 -33.5t-11 -43t-12.5 -48.5t-12.5 -49q-14 -57 -30 -120q-3 -11 3 -18.5t17 -7.5h191l83 320h179l-82 -320h62z" />
    <glyph glyph-name="five" unicode="5" horiz-adv-x="661" 
d="M294 545q-2 -8 1 -17t15 -17l290 -192q22 -14 33.5 -42.5t4.5 -54.5l-42 -161q-7 -25 -29.5 -43t-49.5 -18h-457q-35 0 -53 23.5t-10 57.5l51 202h180l-23 -85q-3 -11 3.5 -18.5t18.5 -7.5h189q13 0 21.5 4.5t11.5 16.5t-1.5 20.5t-16.5 16.5l-285 189q-22 14 -33.5 42.5
t-4.5 54.5l57 222h604l-44 -171h-425z" />
    <glyph glyph-name="six" unicode="6" horiz-adv-x="665" 
d="M280 333q-13 9 -24 5t-16 -21l-30 -119q-3 -11 3 -18.5t18 -7.5h191q13 0 21.5 6t10.5 15q2 10 -1 18t-15 16zM774 738l-44 -171h-395q-13 0 -22 -5t-12 -17q-6 -23 18 -38l286 -189q25 -17 34.5 -42.5t2.5 -53.5l-41 -161q-6 -25 -29.5 -43t-49.5 -18h-457
q-35 0 -53.5 23.5t-10.5 57.5l153 596q6 25 29.5 43t50.5 18h540z" />
    <glyph glyph-name="seven" unicode="7" horiz-adv-x="591" 
d="M428 539q7 11 2 19.5t-18 8.5h-301l44 171h458q30 0 50 -10t28.5 -27t5 -40t-18.5 -49l-367 -612h-204z" />
    <glyph glyph-name="eight" unicode="8" horiz-adv-x="681" 
d="M234 225q-17 -8 -26.5 -15.5t-9.5 -19.5q0 -9 6.5 -13.5t16.5 -4.5h213q24 0 30 17q7 19 -14 34l-88 58zM520 512q17 8 26 16t9 20q0 19 -23 19h-213q-13 0 -20 -5.5t-9 -12.5q-5 -22 13 -34l89 -59zM604 315q24 -16 35 -42.5t4 -51.5l-42 -160q-7 -25 -29.5 -43
t-48.5 -18h-460q-35 0 -54 23t-10 58l42 166q3 12 10 25t17 25t22.5 21.5t25.5 15.5l100 44l-67 45q-23 16 -33.5 42.5t-4.5 51.5l41 160q6 25 29 43t49 18h460q35 0 54 -23.5t10 -58.5l-42 -165q-7 -26 -28.5 -51.5t-44.5 -36.5l-50 -22q-10 -5 -18.5 -8.5t-16.5 -6.5
q-9 -4 -16 -7z" />
    <glyph glyph-name="nine" unicode="9" horiz-adv-x="679" 
d="M468 406q14 -9 25 -5t16 21l30 118q3 11 -3 19t-17 8h-192q-13 0 -21.5 -6.5t-11.5 -16.5q-2 -8 1 -17.5t16 -17.5zM685 738q34 0 52.5 -23.5t9.5 -58.5l-153 -595q-6 -25 -29 -43t-49 -18h-456q-35 0 -54 23t-10 58l49 190h178l-18 -73q-3 -12 3 -19t17 -7h190
q12 0 21 4.5t12 16.5t-1.5 20.5t-17.5 16.5l-285 189q-25 17 -34.5 42t-1.5 55l41 161q6 25 29 43t49 18h458z" />
    <glyph glyph-name="colon" unicode=":" horiz-adv-x="259" 
d="M26 172h177l-44 -172h-177zM253 368h-178l44 172h178z" />
    <glyph glyph-name="semicolon" unicode=";" horiz-adv-x="259" 
d="M78 -89h-100l81 89h-77l44 172h177l-44 -172zM253 368h-178l44 172h178z" />
    <glyph glyph-name="semicolon" unicode="&#x37e;" horiz-adv-x="259" 
d="M78 -89h-100l81 89h-77l44 172h177l-44 -172zM253 368h-178l44 172h178z" />
    <glyph glyph-name="less" unicode="&#x3c;" horiz-adv-x="524" 
d="M495 239l-37 -147l-400 169l42 166l492 187l-44 -170l-283 -108z" />
    <glyph glyph-name="equal" unicode="=" horiz-adv-x="512" 
d="M435 98h-430l39 151h429zM496 331h-430l39 152h429z" />
    <glyph glyph-name="greater" unicode="&#x3e;" horiz-adv-x="527" 
d="M111 467l37 146l399 -186l-42 -165l-488 -162l42 166l280 94z" />
    <glyph glyph-name="question" unicode="?" horiz-adv-x="689" 
d="M365 0h-180l44 172h179zM713 488q-7 -26 -28 -50.5t-45 -35.5l-165 -73q-16 -7 -24 -16t-12 -23l-12 -47h-179l27 107q6 25 27 50t47 36l173 76q17 8 26 16t9 20q0 19 -22 19h-201q-12 0 -23 -9.5t-14 -20.5l-14 -52h-178l49 192q6 25 29.5 43t49.5 18h460q35 0 54 -24
t10 -58z" />
    <glyph glyph-name="at" unicode="@" horiz-adv-x="764" 
d="M334 286q-10 -5 -16 -9t-6 -11q0 -11 14 -11h115q7 0 13.5 5.5t8.5 12.5l14 57q2 11 -2.5 14t-13.5 -1zM569 282q-3 -12 3.5 -20.5t20.5 -8.5t22.5 8t10.5 18l81 314q5 17 -4 29t-27 12h-381q-18 0 -33 -12t-20 -29l-116 -449q-5 -17 5 -28.5t27 -11.5h424l-26 -104h-491
q-34 0 -52.5 23t-9.5 58l151 596q6 25 30 43t50 18h535q35 0 53.5 -23.5t9.5 -58.5l-113 -438q-7 -26 -28 -43.5t-55 -17.5h-402q-20 0 -30.5 14t-5.5 33l24 95q4 15 16.5 30t26.5 21l234 102q20 8 20 20q0 11 -14 11h-113q-17 0 -21 -16l-11 -41h-103l31 121q4 14 17.5 25
t28.5 11h263q20 0 30.5 -14t5.5 -34z" />
    <glyph glyph-name="A" unicode="A" horiz-adv-x="695" 
d="M301 537q-16 -59 -28 -107q-5 -20 -10 -39.5t-9 -34.5q-4 -18 -8 -34l282 141l20 77q3 11 -2.5 19t-16.5 8h-191q-12 0 -23 -9.5t-14 -20.5zM164 0h-179l174 677q6 25 29 43t49 18h458q34 0 52.5 -23.5t9.5 -58.5l-167 -656h-180l67 260q-79 -39 -141 -70l-142 -70z" />
    <glyph glyph-name="B" unicode="B" horiz-adv-x="696" 
d="M237 204q-13 -7 -11.5 -19.5t17.5 -12.5h190q12 0 22.5 8t13.5 20l26 110q3 13 -4 19t-21 -2zM350 567q-12 0 -23 -8t-14 -20l-28 -112q-3 -12 3 -16.5t17 1.5l234 123q11 6 14.5 9.5t4.5 8.5t-3 9.5t-10 4.5h-195zM637 415q31 -16 41 -42t2 -58l-61 -244
q-8 -34 -35.5 -52.5t-66.5 -18.5h-527l187 738h501q53 0 74.5 -28t8.5 -76l-36 -135q-12 -43 -49 -63z" />
    <glyph glyph-name="C" unicode="C" horiz-adv-x="677" 
d="M657 283l-58 -222q-7 -25 -29.5 -43t-48.5 -18h-456q-35 0 -54 23t-10 58l153 596q6 25 29 43t49 18h456q35 0 54 -24t10 -58l-52 -201h-178l22 85q3 11 -3 19t-17 8h-191q-12 0 -23 -9.5t-14 -20.5l-86 -339q-3 -11 3 -18.5t17 -7.5h190q12 0 23 8.5t14 19.5l21 83h179z
" />
    <glyph glyph-name="D" unicode="D" horiz-adv-x="677" 
d="M449 547q-3 8 -11.5 14t-17.5 6h-109l-101 -395h217q13 0 23.5 8.5t13.5 19.5l47 182q2 8 1 19.5t-4 18.5zM678 468q9 -19 11.5 -48t-3.5 -50l-78 -309q-7 -25 -30 -43t-50 -18h-540l189 738h326q22 0 43.5 -14t30.5 -34z" />
    <glyph glyph-name="E" unicode="E" horiz-adv-x="621" 
d="M568 455l-44 -172h-291l-22 -85q-3 -11 3 -18.5t17 -7.5h354l-44 -172h-476q-35 0 -53 23t-9 58l151 596q6 25 30 43t50 18h496l-44 -171h-351q-12 0 -23 -9.5t-14 -20.5l-21 -82h291z" />
    <glyph glyph-name="F" unicode="F" horiz-adv-x="580" 
d="M220 239l-30 -120q-13 -53 -31 -119h-178q3 13 12 48.5t22 85.5t28.5 110t30.5 120q36 142 80 313q7 25 30.5 43t49.5 18h460l-44 -171h-315q-13 0 -24 -9t-14 -21l-32 -126h264l-44 -172h-265z" />
    <glyph glyph-name="G" unicode="G" horiz-adv-x="681" 
d="M728 567h-395q-12 0 -22.5 -9.5t-13.5 -20.5l-88 -339q-3 -11 3.5 -18.5t18.5 -7.5h189q13 0 23.5 8.5t13.5 19.5l21 83h-140l44 172h319l-101 -394q-6 -25 -29.5 -43t-49.5 -18h-457q-35 0 -53 23.5t-10 57.5l153 596q6 25 29 43t49 18h540z" />
    <glyph glyph-name="H" unicode="H" horiz-adv-x="703" 
d="M214 188l-48 -188h-178l189 738h179l-85 -331l283 142l48 189h180l-190 -738h-178l84 330z" />
    <glyph glyph-name="I" unicode="I" horiz-adv-x="278" 
d="M168 0h-180l191 738h178z" />
    <glyph glyph-name="J" unicode="J" horiz-adv-x="654" 
d="M564 61q-6 -25 -29 -43t-49 -18h-434q-35 0 -53.5 24t-10.5 57l60 233h180l-31 -116q-3 -11 3 -18.5t18 -7.5h167q12 0 23 8.5t14 19.5l93 367h-182l44 171h361z" />
    <glyph glyph-name="K" unicode="K" horiz-adv-x="673" 
d="M524 544q8 4 15 13t9 18l42 163h178l-60 -235q-8 -31 -27.5 -54.5t-45.5 -36.5l-132 -66l37 -154q2 -8 9.5 -14t15.5 -6h74l-44 -172h-126q-26 0 -48.5 18t-28.5 43l-49 205l-124 -62l-52 -204h-179l190 738h178l-82 -318z" />
    <glyph glyph-name="L" unicode="L" horiz-adv-x="555" 
d="M485 0h-417q-35 0 -53 23t-9 58l167 657h180l-140 -540q-3 -11 4 -18.5t18 -7.5h294z" />
    <glyph glyph-name="M" unicode="M" horiz-adv-x="1007" 
d="M627 707q17 14 39 22.5t49 8.5h292q35 0 53.5 -23.5t9.5 -58.5l-168 -656h-178l138 540q3 12 -3.5 19.5t-17.5 7.5h-132q-12 0 -23 -9t-14 -21l-137 -537h-179l138 540q3 12 -3 19.5t-17 7.5h-162l-145 -567h-178l188 738h369q29 0 49 -8.5t32 -22.5z" />
    <glyph glyph-name="N" unicode="N" horiz-adv-x="699" 
d="M594 0h-180l138 540q3 12 -2.5 19.5t-16.5 7.5h-220l-145 -567h-179l188 738h520q35 0 54 -23.5t10 -58.5z" />
    <glyph glyph-name="O" unicode="O" 
d="M209 198q-3 -11 4 -18.5t18 -7.5h190q12 0 22.5 8.5t13.5 19.5l88 340q3 11 -3 19t-17 8h-191q-13 0 -23.5 -9.5t-13.5 -20.5zM600 61q-6 -25 -29 -43t-49 -18h-458q-35 0 -53 23t-9 58l152 596q6 25 29.5 43t49.5 18h456q35 0 53.5 -24t10.5 -58z" />
    <glyph glyph-name="P" unicode="P" horiz-adv-x="655" 
d="M265 385l244 120q16 8 22 18t8 18q2 10 -3.5 18t-17.5 8h-206zM167 0h-178l188 738h507q35 0 54 -23.5t10 -58.5l-49 -189q-8 -30 -27.5 -53t-44.5 -36l-417 -208z" />
    <glyph glyph-name="Q" unicode="Q" horiz-adv-x="686" 
d="M210 198q-3 -11 3.5 -18.5t17.5 -7.5h190q12 0 23 8.5t14 19.5l87 340q3 11 -3 19t-17 8h-190q-12 0 -23.5 -9.5t-14.5 -20.5zM504 -138h-179l-31 138h-229q-35 0 -53.5 23t-9.5 58l152 596q6 25 30 43t50 18h456q35 0 53.5 -24t10.5 -58l-153 -595q-6 -25 -29.5 -43
t-49.5 -18h-48z" />
    <glyph glyph-name="R" unicode="R" horiz-adv-x="662" 
d="M268 394l243 122q15 8 21.5 16t8.5 16q3 10 -4 14.5t-19 4.5h-206zM523 192q2 -8 9.5 -14t16.5 -6h90l-44 -172h-142q-26 0 -48.5 18t-28.5 43l-43 178l-120 -60l-46 -179h-178l188 738h507q35 0 54 -24t10 -58l-47 -180q-8 -30 -27 -53.5t-44 -35.5l-137 -68z" />
    <glyph glyph-name="S" unicode="S" horiz-adv-x="670" 
d="M227 283l-21 -85q-3 -11 3 -18.5t17 -7.5h191q12 0 21 6t11 15q2 10 -1 18t-15 16l-288 192q-22 14 -33.5 42.5t-4.5 53.5l43 162q7 25 29.5 43t48.5 18h456q35 0 54 -24t10 -58l-52 -201h-178l22 85q3 11 -3 19t-17 8h-191q-12 0 -21 -5t-12 -17q-6 -22 19 -38l286 -189
q10 -7 18.5 -18.5t13.5 -24.5t6 -27t-2 -26l-42 -161q-7 -25 -29.5 -43t-48.5 -18h-456q-35 0 -54 23.5t-10 57.5l52 202h178z" />
    <glyph glyph-name="T" unicode="T" horiz-adv-x="610" 
d="M96 567l44 171h589l-44 -171h-206l-145 -567h-178l145 567h-205z" />
    <glyph glyph-name="U" unicode="U" horiz-adv-x="693" 
d="M604 61q-6 -25 -29 -43t-50 -18h-457q-35 0 -53 23.5t-10 57.5l168 657h179l-139 -540q-3 -11 3.5 -18.5t18.5 -7.5h189q13 0 23.5 8t13.5 20l138 538h178z" />
    <glyph glyph-name="V" unicode="V" horiz-adv-x="663" 
d="M655 298q-8 -30 -27.5 -53t-44.5 -36l-416 -209h-179l190 738h178l-134 -523l243 122q16 8 22.5 17t8.5 17l94 367h180z" />
    <glyph glyph-name="W" unicode="W" horiz-adv-x="1003" 
d="M450 31q-17 -14 -39 -22.5t-50 -8.5h-292q-35 0 -53.5 23t-9.5 58l167 657h180l-139 -540q-3 -11 3 -18.5t17 -7.5h132q13 0 23.5 8.5t13.5 19.5l139 538h178l-139 -540q-3 -11 3.5 -18.5t18.5 -7.5h131q12 0 23.5 8t14.5 20l137 538h178l-173 -677q-6 -25 -29.5 -43
t-49.5 -18h-305q-28 0 -48 8.5t-32 22.5z" />
    <glyph glyph-name="X" unicode="X" horiz-adv-x="682" 
d="M606 321q24 -16 34 -43t4 -52l-58 -226h-182l47 188q6 23 -12 35q-20 14 -37 25q-14 8 -26 17l-12 8l-121 -54q-17 -8 -24.5 -15t-11.5 -22l-47 -182h-182l68 262q6 26 27.5 51t45.5 35l80 35l-52 35q-23 15 -33.5 42t-3.5 52l57 226h182l-48 -189q-6 -22 12 -34l74 -49
l124 55q17 8 24.5 15.5t11.5 22.5l47 179h182l-68 -259q-6 -25 -27.5 -51t-45.5 -36l-82 -36z" />
    <glyph glyph-name="Y" unicode="Y" horiz-adv-x="671" 
d="M273 265q-41 -19 -81 -20t-71 12t-47 38t-7 60l97 383h181l-75 -292l264 123l44 169h177l-173 -677q-6 -25 -29.5 -43t-50.5 -18h-526l43 172h384q12 0 22 8t13 20l42 162z" />
    <glyph glyph-name="Z" unicode="Z" horiz-adv-x="649" 
d="M682 481q-6 -25 -26.5 -48t-52.5 -39l-365 -173q-17 -8 -24.5 -15.5t-11.5 -19.5l-4 -14h405l-45 -172h-582l65 255q6 25 25 49t49 38l371 174q17 8 25 14.5t11 21.5l3 15h-404l43 171h584z" />
    <glyph glyph-name="bracketleft" unicode="[" horiz-adv-x="256" 
d="M456 789h-67q-15 0 -24.5 -9t-12.5 -21l-201 -784q-3 -12 2 -19.5t18 -7.5h70l-26 -100h-189q-35 0 -53.5 23.5t-9.5 58.5l230 899q6 25 29 43t50 18h209z" />
    <glyph glyph-name="backslash" unicode="\" horiz-adv-x="446" 
d="M391 0h-152l-110 738h152z" />
    <glyph glyph-name="bracketright" unicode="]" horiz-adv-x="285" 
d="M-116 -52h67q15 0 24.5 8.5t12.5 20.5l201 785q3 12 -2.5 19.5t-17.5 7.5h-69l25 101h189q35 0 53.5 -24.5t10.5 -58.5l-230 -897q-7 -26 -30.5 -44t-49.5 -18h-210z" />
    <glyph glyph-name="asciicircum" unicode="^" horiz-adv-x="513" 
d="M200 368h-126l238 370h126l69 -370h-110l-44 237z" />
    <glyph glyph-name="underscore" unicode="_" horiz-adv-x="986" 
d="M824 -237h-905l37 144h906z" />
    <glyph glyph-name="grave" unicode="`" 
d="M609 790l-260 75l30 114l259 -73z" />
    <glyph glyph-name="a" unicode="a" horiz-adv-x="690" 
d="M488 301q5 18 -4.5 23.5t-25.5 -1.5l-222 -98q-17 -8 -26.5 -15.5t-9.5 -19.5q0 -9 6.5 -13.5t16.5 -4.5h202q12 0 22.5 8.5t13.5 19.5zM337 567q-15 0 -24 -9t-12 -21l-18 -71h-180l55 211q7 25 30 43t50 18h456q35 0 53.5 -24t10.5 -58l-153 -595q-6 -25 -29.5 -43
t-50.5 -18h-460q-35 0 -54 24t-10 57l44 166q7 25 27 50.5t46 36.5l404 178q17 8 26.5 16t9.5 20q0 19 -22 19h-199z" />
    <glyph glyph-name="b" unicode="b" horiz-adv-x="696" 
d="M237 204q-13 -7 -11.5 -19.5t17.5 -12.5h190q12 0 22.5 8t13.5 20l26 110q3 13 -4 19t-21 -2zM350 567q-12 0 -23 -8t-14 -20l-28 -112q-3 -12 3 -16.5t17 1.5l234 123q11 6 14.5 9.5t4.5 8.5t-3 9.5t-10 4.5h-195zM637 415q31 -16 41 -42t2 -58l-61 -244
q-8 -34 -35.5 -52.5t-66.5 -18.5h-527l187 738h501q53 0 74.5 -28t8.5 -76l-36 -135q-12 -43 -49 -63z" />
    <glyph glyph-name="c" unicode="c" horiz-adv-x="677" 
d="M657 283l-58 -222q-7 -25 -29.5 -43t-48.5 -18h-456q-35 0 -54 23t-10 58l153 596q6 25 29 43t49 18h456q35 0 54 -24t10 -58l-52 -201h-178l22 85q3 11 -3 19t-17 8h-191q-12 0 -23 -9.5t-14 -20.5l-86 -339q-3 -11 3 -18.5t17 -7.5h190q12 0 23 8.5t14 19.5l21 83h179z
" />
    <glyph glyph-name="d" unicode="d" horiz-adv-x="693" 
d="M428 172q13 0 23.5 8.5t13.5 19.5l88 340q2 11 -4 19t-17 8h-220l-101 -395h217zM698 738q35 0 53 -24t9 -58l-151 -595q-7 -25 -30.5 -43t-49.5 -18h-541l190 738h520z" />
    <glyph glyph-name="e" unicode="e" horiz-adv-x="683" 
d="M271 436q-5 -17 3.5 -23t25.5 2l222 97q17 8 26 16t9 20q0 19 -23 19h-201q-12 0 -23 -9t-14 -21zM420 172q16 0 25 8t12 20l19 73h178l-55 -212q-7 -25 -29.5 -43t-48.5 -18h-456q-35 0 -54 23t-10 58l153 596q6 25 29 43t49 18h460q35 0 54 -23.5t10 -58.5l-42 -165
q-7 -26 -27 -51.5t-46 -36.5l-405 -178q-17 -8 -26.5 -16t-9.5 -19q0 -9 6.5 -13.5t16.5 -4.5h197z" />
    <glyph glyph-name="f" unicode="f" horiz-adv-x="580" 
d="M220 239l-30 -120q-13 -53 -31 -119h-178q3 13 12 48.5t22 85.5t28.5 110t30.5 120q36 142 80 313q7 25 30.5 43t49.5 18h460l-44 -171h-315q-13 0 -24 -9t-14 -21l-32 -126h264l-44 -172h-265z" />
    <glyph glyph-name="g" unicode="g" horiz-adv-x="681" 
d="M728 567h-395q-12 0 -22.5 -9.5t-13.5 -20.5l-88 -339q-3 -11 3.5 -18.5t18.5 -7.5h189q13 0 23.5 8.5t13.5 19.5l21 83h-140l44 172h319l-101 -394q-6 -25 -29.5 -43t-49.5 -18h-457q-35 0 -53 23.5t-10 57.5l153 596q6 25 29 43t49 18h540z" />
    <glyph glyph-name="h" unicode="h" horiz-adv-x="703" 
d="M214 188l-48 -188h-178l189 738h179l-85 -331l283 142l48 189h180l-190 -738h-178l84 330z" />
    <glyph glyph-name="i" unicode="i" horiz-adv-x="263" 
d="M163 0h-178l126 495h180zM174 738h179l-44 -171h-179z" />
    <glyph glyph-name="j" unicode="j" horiz-adv-x="654" 
d="M564 61q-6 -25 -29 -43t-49 -18h-434q-35 0 -53.5 24t-10.5 57l60 233h180l-31 -116q-3 -11 3 -18.5t18 -7.5h167q12 0 23 8.5t14 19.5l93 367h-182l44 171h361z" />
    <glyph glyph-name="k" unicode="k" horiz-adv-x="673" 
d="M524 544q8 4 15 13t9 18l42 163h178l-60 -235q-8 -31 -27.5 -54.5t-45.5 -36.5l-132 -66l37 -154q2 -8 9.5 -14t15.5 -6h74l-44 -172h-126q-26 0 -48.5 18t-28.5 43l-49 205l-124 -62l-52 -204h-179l190 738h178l-82 -318z" />
    <glyph glyph-name="l" unicode="l" horiz-adv-x="555" 
d="M485 0h-417q-35 0 -53 23t-9 58l167 657h180l-140 -540q-3 -11 4 -18.5t18 -7.5h294z" />
    <glyph glyph-name="m" unicode="m" horiz-adv-x="918" 
d="M712 738h285l-191 -738h-178l124 481l-265 -481h-181l-15 482l-124 -482h-178l188 738h264l12 -476z" />
    <glyph glyph-name="n" unicode="n" horiz-adv-x="714" 
d="M613 738h180l-189 -738h-218l-106 441l-113 -441h-179l190 738h204l112 -471z" />
    <glyph glyph-name="o" unicode="o" 
d="M209 198q-3 -11 4 -18.5t18 -7.5h190q12 0 22.5 8.5t13.5 19.5l88 340q3 11 -3 19t-17 8h-191q-13 0 -23.5 -9.5t-13.5 -20.5zM600 61q-6 -25 -29 -43t-49 -18h-458q-35 0 -53 23t-9 58l152 596q6 25 29.5 43t49.5 18h456q35 0 53.5 -24t10.5 -58z" />
    <glyph glyph-name="p" unicode="p" horiz-adv-x="655" 
d="M265 385l244 120q16 8 22 18t8 18q2 10 -3.5 18t-17.5 8h-206zM167 0h-178l188 738h507q35 0 54 -23.5t10 -58.5l-49 -189q-8 -30 -27.5 -53t-44.5 -36l-417 -208z" />
    <glyph glyph-name="q" unicode="q" horiz-adv-x="686" 
d="M210 198q-3 -11 3.5 -18.5t17.5 -7.5h190q12 0 23 8.5t14 19.5l87 340q3 11 -3 19t-17 8h-190q-12 0 -23.5 -9.5t-14.5 -20.5zM504 -138h-179l-31 138h-229q-35 0 -53.5 23t-9.5 58l152 596q6 25 30 43t50 18h456q35 0 53.5 -24t10.5 -58l-153 -595q-6 -25 -29.5 -43
t-49.5 -18h-48z" />
    <glyph glyph-name="r" unicode="r" horiz-adv-x="662" 
d="M268 394l243 122q15 8 21.5 16t8.5 16q3 10 -4 14.5t-19 4.5h-206zM523 192q2 -8 9.5 -14t16.5 -6h90l-44 -172h-142q-26 0 -48.5 18t-28.5 43l-43 178l-120 -60l-46 -179h-178l188 738h507q35 0 54 -24t10 -58l-47 -180q-8 -30 -27 -53.5t-44 -35.5l-137 -68z" />
    <glyph glyph-name="s" unicode="s" horiz-adv-x="666" 
d="M-30 0l45 172h397q12 0 20.5 6.5t10.5 14.5q3 10 0 18t-15 16l-288 192q-22 14 -32.5 42.5t-4.5 53.5l41 162q6 25 29 43t49 18h458q35 0 54 -24.5t10 -57.5l-52 -201h-180l23 85q3 11 -3 19t-18 8h-191q-12 0 -20.5 -5t-11.5 -17q-6 -23 18 -38l286 -189
q22 -14 32.5 -42.5t4.5 -53.5l-41 -161q-6 -25 -29.5 -43t-50.5 -18h-541z" />
    <glyph glyph-name="t" unicode="t" horiz-adv-x="610" 
d="M96 567l44 171h589l-44 -171h-206l-145 -567h-178l145 567h-205z" />
    <glyph glyph-name="u" unicode="u" horiz-adv-x="693" 
d="M604 61q-6 -25 -29 -43t-50 -18h-457q-35 0 -53 23.5t-10 57.5l168 657h179l-139 -540q-3 -11 3.5 -18.5t18.5 -7.5h189q13 0 23.5 8t13.5 20l138 538h178z" />
    <glyph glyph-name="v" unicode="v" horiz-adv-x="663" 
d="M655 298q-8 -30 -27.5 -53t-44.5 -36l-416 -209h-179l190 738h178l-134 -523l243 122q16 8 22.5 17t8.5 17l94 367h180z" />
    <glyph glyph-name="w" unicode="w" horiz-adv-x="1003" 
d="M450 31q-17 -14 -39 -22.5t-50 -8.5h-292q-35 0 -53.5 23t-9.5 58l167 657h180l-139 -540q-3 -11 3 -18.5t17 -7.5h132q13 0 23.5 8.5t13.5 19.5l139 538h178l-139 -540q-3 -11 3.5 -18.5t18.5 -7.5h131q12 0 23.5 8t14.5 20l137 538h178l-173 -677q-6 -25 -29.5 -43
t-49.5 -18h-305q-28 0 -48 8.5t-32 22.5z" />
    <glyph glyph-name="x" unicode="x" horiz-adv-x="653" 
d="M134 738h185q20 -55 37 -99l38 -100l165 199h225l-319 -385l133 -353h-185l-75 199q-12 -15 -26 -31l-27 -31.5t-30 -36.5q-37 -44 -83 -100h-226l321 386z" />
    <glyph glyph-name="y" unicode="y" 
d="M295 544q-2 -9 1 -18t15 -17l158 -103q14 -8 24.5 -4.5t15.5 20.5l83 316h177l-173 -677q-6 -25 -29.5 -43t-50.5 -18h-456q-35 0 -54 23t-10 58l49 190h178l-18 -73q-3 -12 3 -19t18 -7h189q13 0 21.5 4.5t11.5 16.5q6 23 -17 37l-286 189q-25 17 -35 42.5t-2 54.5
l57 222h179z" />
    <glyph glyph-name="z" unicode="z" horiz-adv-x="649" 
d="M682 481q-6 -25 -26.5 -48t-52.5 -39l-365 -173q-17 -8 -24.5 -15.5t-11.5 -19.5l-4 -14h405l-45 -172h-582l65 255q6 25 25 49t49 38l371 174q17 8 25 14.5t11 21.5l3 15h-404l43 171h584z" />
    <glyph glyph-name="braceleft" unicode="{" horiz-adv-x="317" 
d="M144 452q15 6 18 22l90 355q6 25 30 43t50 18h210l-27 -101h-66q-15 0 -24.5 -9t-12.5 -21l-82 -316q-3 -12 -10 -22t-21 -17l-71 -34l45 -31q26 -18 19 -49l-81 -315q-3 -12 2.5 -19.5t17.5 -7.5h69l-25 -100h-189q-35 0 -54 23.5t-10 58.5l88 339q5 21 -14 32l-65 46
l15 57z" />
    <glyph glyph-name="bar" unicode="|" horiz-adv-x="233" 
d="M133 0h-153l189 738h153z" />
    <glyph glyph-name="braceright" unicode="}" horiz-adv-x="351" 
d="M254 285q-13 -6 -16 -22l-92 -353q-7 -26 -29.5 -44t-48.5 -18h-210l26 100h67q15 0 24.5 8.5t12.5 20.5l81 317q3 12 10.5 22.5t20.5 16.5l71 35l-45 31q-26 18 -18 48l81 315q3 12 -3 19.5t-19 7.5h-69l27 101h189q35 0 54 -24t10 -59l-88 -339q-5 -21 12 -32l66 -45
l-14 -57z" />
    <glyph glyph-name="asciitilde" unicode="~" horiz-adv-x="686" 
d="M452 833q-15 5 -22.5 1.5t-10.5 -17.5l-4 -18h-87l14 51q11 42 44 62t94 0l76 -25q26 -8 32 16l4 17h86l-12 -50q-11 -44 -44.5 -63.5t-93.5 0.5z" />
    <glyph glyph-name="Adieresis" unicode="&#xc4;" horiz-adv-x="695" 
d="M528 463l10 38q4 17 10 39q3 11 -2.5 19t-16.5 8h-191q-12 0 -23 -9t-14 -20l-55 -215zM164 0h-179l174 677q6 25 29 43.5t49 18.5h458q34 0 52.5 -24t9.5 -59l-167 -656h-180l67 260q-79 -39 -141 -70l-142 -70zM362 923h131l-32 -125h-131zM560 923h131l-32 -125h-130z
" />
    <glyph glyph-name="Aring" unicode="&#xc5;" horiz-adv-x="695" 
d="M528 463l10 38q4 17 10 39q3 11 -2.5 19t-16.5 8h-191q-12 0 -23 -9t-14 -20l-55 -215zM564 934q2 9 -8 9h-62q-3 0 -6 -1.5t-3 -4.5l-18 -65q-1 -4 1.5 -7.5t6.5 -3.5h63q7 0 9 8zM164 0h-179l174 677q6 25 29 43.5t49 18.5h458q34 0 52.5 -24t9.5 -59l-167 -656h-180
l67 260q-79 -39 -141 -70l-142 -70zM419 796q-16 0 -25 10.5t-4 26.5l39 146q3 11 14 21t23 10h146q16 0 25 -11t5 -26l-39 -148q-3 -11 -14 -20t-23 -9h-147z" />
    <glyph glyph-name="Ccedilla" unicode="&#xc7;" horiz-adv-x="677" 
d="M59 0q-32 0 -49.5 23t-8.5 58l151 596q3 12 11 23.5t19 20t24 13.5t26 5h456q35 0 54 -25t10 -58l-52 -201h-178l21 85q3 11 -3 19t-18 8h-189q-13 0 -23.5 -9t-13.5 -20l-88 -339q-3 -11 3.5 -19t17.5 -8h191q12 0 22 8.5t13 19.5l22 82h179l-57 -220q-7 -26 -30.5 -44
t-53.5 -18h-205l-20 -38h46q15 0 23.5 -11t4.5 -26l-24 -96q-3 -12 -14.5 -20.5t-23.5 -8.5h-127l16 62h85q7 0 9 7l5 21q2 9 -7 9h-59q-15 0 -21.5 10t1.5 24l35 67h-180z" />
    <glyph glyph-name="Eacute" unicode="&#xc9;" horiz-adv-x="621" 
d="M568 455l-44 -172h-292l-22 -85q-3 -11 3.5 -18.5t17.5 -7.5h354l-44 -172h-476q-35 0 -53 23t-9 58l151 596q6 25 30 43t50 18h496l-44 -171h-351q-12 0 -23 -9.5t-14 -20.5l-21 -82h291zM634 854l-280 -65l34 130l280 65z" />
    <glyph glyph-name="Ntilde" unicode="&#xd1;" horiz-adv-x="699" 
d="M594 0h-180l138 540q3 12 -2.5 19.5t-16.5 7.5h-220l-145 -567h-179l188 738h520q35 0 54 -23.5t10 -58.5zM460 831q-14 5 -21 0.5t-11 -16.5l-5 -17h-87l13 51q11 42 44.5 62t94.5 0l75 -25q14 -5 21 -0.5t11 16.5l6 18h86l-13 -51q-5 -21 -16 -37t-28 -25t-40.5 -10
t-53.5 9z" />
    <glyph glyph-name="Odieresis" unicode="&#xd6;" 
d="M211 198q-3 -11 3 -18.5t17 -7.5h190q12 0 23 8.5t14 19.5l87 340q3 11 -3 19t-17 8h-191q-12 0 -23 -9.5t-14 -20.5zM600 61q-6 -25 -29 -43t-49 -18h-456q-35 0 -54 23t-10 58l153 596q6 25 29 43t49 18h458q34 0 52.5 -23.5t9.5 -58.5zM360 923h130l-32 -125h-130z
M558 923h130l-32 -125h-130z" />
    <glyph glyph-name="Udieresis" unicode="&#xdc;" horiz-adv-x="693" 
d="M605 61q-6 -25 -29 -43t-50 -18h-457q-35 0 -53 23.5t-10 57.5l168 657h179l-139 -540q-3 -11 3.5 -18.5t18.5 -7.5h189q13 0 23.5 8t13.5 20l138 538h178zM363 923h131l-32 -125h-132zM561 923h131l-32 -125h-132z" />
    <glyph glyph-name="aacute" unicode="&#xe1;" horiz-adv-x="690" 
d="M488 301q5 18 -4.5 23.5t-25.5 -1.5l-222 -98q-17 -8 -26.5 -15.5t-9.5 -19.5q0 -9 6.5 -13.5t16.5 -4.5h202q12 0 22.5 8.5t13.5 19.5zM337 567q-15 0 -24 -9t-12 -21l-18 -71h-180l55 211q7 25 30 43t50 18h456q35 0 53.5 -24t10.5 -58l-153 -595q-6 -25 -29.5 -43
t-50.5 -18h-460q-35 0 -54 24t-10 57l44 166q7 25 27 50.5t46 36.5l404 178q17 8 26.5 16t9.5 20q0 19 -22 19h-199zM634 855l-281 -65l34 130l280 66z" />
    <glyph glyph-name="agrave" unicode="&#xe0;" horiz-adv-x="690" 
d="M488 301q5 18 -4.5 23.5t-25.5 -1.5l-222 -98q-17 -8 -26.5 -15.5t-9.5 -19.5q0 -9 6.5 -13.5t16.5 -4.5h202q12 0 22.5 8.5t13.5 19.5zM337 567q-15 0 -24 -9t-12 -21l-18 -71h-180l55 211q7 25 30 43t50 18h456q35 0 53.5 -24t10.5 -58l-153 -595q-6 -25 -29.5 -43
t-50.5 -18h-460q-35 0 -54 24t-10 57l44 166q7 25 27 50.5t46 36.5l404 178q17 8 26.5 16t9.5 20q0 19 -22 19h-199zM609 790l-260 75l30 114l259 -73z" />
    <glyph glyph-name="acircumflex" unicode="&#xe2;" horiz-adv-x="690" 
d="M488 301q5 18 -4.5 23.5t-25.5 -1.5l-222 -98q-17 -8 -26.5 -15.5t-9.5 -19.5q0 -9 6.5 -13.5t16.5 -4.5h202q12 0 22.5 8.5t13.5 19.5zM337 567q-15 0 -24 -9t-12 -21l-18 -71h-180l55 211q7 25 30 43t50 18h456q35 0 53.5 -24t10.5 -58l-153 -595q-6 -25 -29.5 -43
t-50.5 -18h-460q-35 0 -54 24t-10 57l44 166q7 25 27 50.5t46 36.5l404 178q17 8 26.5 16t9.5 20q0 19 -22 19h-199zM436 798h-115l149 165h89l76 -165h-95l-35 77z" />
    <glyph glyph-name="adieresis" unicode="&#xe4;" horiz-adv-x="690" 
d="M488 301q5 18 -4.5 23.5t-25.5 -1.5l-222 -98q-17 -8 -26.5 -15.5t-9.5 -19.5q0 -9 6.5 -13.5t16.5 -4.5h202q12 0 22.5 8.5t13.5 19.5zM337 567q-15 0 -24 -9t-12 -21l-18 -71h-180l55 211q7 25 30 43t50 18h456q35 0 53.5 -24t10.5 -58l-153 -595q-6 -25 -29.5 -43
t-50.5 -18h-460q-35 0 -54 24t-10 57l44 166q7 25 27 50.5t46 36.5l404 178q17 8 26.5 16t9.5 20q0 19 -22 19h-199zM357 923h131l-32 -125h-131zM555 923h131l-32 -125h-130z" />
    <glyph glyph-name="atilde" unicode="&#xe3;" horiz-adv-x="690" 
d="M488 301q5 18 -4.5 23.5t-25.5 -1.5l-222 -98q-17 -8 -26.5 -15.5t-9.5 -19.5q0 -9 6.5 -13.5t16.5 -4.5h202q12 0 22.5 8.5t13.5 19.5zM337 567q-15 0 -24 -9t-12 -21l-18 -71h-180l55 211q7 25 30 43t50 18h456q35 0 53.5 -24t10.5 -58l-153 -595q-6 -25 -29.5 -43
t-50.5 -18h-460q-35 0 -54 24t-10 57l44 166q7 25 27 50.5t46 36.5l404 178q17 8 26.5 16t9.5 20q0 19 -22 19h-199zM452 833q-15 5 -22.5 1.5t-10.5 -17.5l-4 -18h-87l14 51q11 42 44 62t94 0l76 -25q26 -8 32 16l4 17h86l-12 -50q-11 -44 -44.5 -63.5t-93.5 0.5z" />
    <glyph glyph-name="aring" unicode="&#xe5;" horiz-adv-x="690" 
d="M559 934q2 9 -8 9h-62q-3 0 -6 -1.5t-3 -4.5l-18 -65q-1 -4 1.5 -7.5t6.5 -3.5h63q7 0 9 8zM488 301q5 18 -4.5 23.5t-25.5 -1.5l-222 -98q-17 -8 -26.5 -15.5t-9.5 -19.5q0 -9 6.5 -13.5t16.5 -4.5h202q12 0 22.5 8.5t13.5 19.5zM337 567q-15 0 -24 -9t-12 -21l-18 -71
h-180l55 211q7 25 30 43t50 18h456q35 0 53.5 -24t10.5 -58l-153 -595q-6 -25 -29.5 -43t-50.5 -18h-460q-35 0 -54 24t-10 57l44 166q7 25 27 50.5t46 36.5l404 178q17 8 26.5 16t9.5 20q0 19 -22 19h-199zM414 796q-16 0 -25 10.5t-4 26.5l39 146q3 11 14 21t23 10h146
q16 0 25 -11t5 -26l-39 -148q-3 -11 -14 -20t-23 -9h-147z" />
    <glyph glyph-name="ccedilla" unicode="&#xe7;" horiz-adv-x="677" 
d="M59 0q-32 0 -49.5 23t-8.5 58l151 596q3 12 11 23.5t19 20t24 13.5t26 5h456q35 0 54 -25t10 -58l-52 -201h-178l21 85q3 11 -3 19t-18 8h-189q-13 0 -23.5 -9t-13.5 -20l-88 -339q-3 -11 3.5 -19t17.5 -8h191q12 0 22 8.5t13 19.5l22 82h179l-57 -220q-7 -26 -30.5 -44
t-53.5 -18h-205l-20 -38h46q15 0 23.5 -11t4.5 -26l-24 -96q-3 -12 -14.5 -20.5t-23.5 -8.5h-127l16 62h85q7 0 9 7l5 21q2 9 -7 9h-59q-15 0 -21.5 10t1.5 24l35 67h-180z" />
    <glyph glyph-name="eacute" unicode="&#xe9;" horiz-adv-x="683" 
d="M271 436q-5 -17 3.5 -23t25.5 2l222 97q17 8 26 16t9 20q0 19 -23 19h-201q-12 0 -23 -9t-14 -21zM420 172q16 0 25 8t12 20l19 73h178l-55 -212q-7 -25 -29.5 -43t-48.5 -18h-456q-35 0 -54 23t-10 58l153 596q6 25 29 43t49 18h460q35 0 54 -23.5t10 -58.5l-42 -165
q-7 -26 -27 -51.5t-46 -36.5l-405 -178q-17 -8 -26.5 -16t-9.5 -19q0 -9 6.5 -13.5t16.5 -4.5h197zM634 854l-280 -65l34 130l280 65z" />
    <glyph glyph-name="egrave" unicode="&#xe8;" horiz-adv-x="683" 
d="M271 436q-5 -17 3.5 -23t25.5 2l222 97q17 8 26 16t9 20q0 19 -23 19h-201q-12 0 -23 -9t-14 -21zM420 172q16 0 25 8t12 20l19 73h178l-55 -212q-7 -25 -29.5 -43t-48.5 -18h-456q-35 0 -54 23t-10 58l153 596q6 25 29 43t49 18h460q35 0 54 -23.5t10 -58.5l-42 -165
q-7 -26 -27 -51.5t-46 -36.5l-405 -178q-17 -8 -26.5 -16t-9.5 -19q0 -9 6.5 -13.5t16.5 -4.5h197zM612 789l-261 74l29 115l261 -74z" />
    <glyph glyph-name="ecircumflex" unicode="&#xea;" horiz-adv-x="683" 
d="M271 436q-5 -17 3.5 -23t25.5 2l222 97q17 8 26 16t9 20q0 19 -23 19h-201q-12 0 -23 -9t-14 -21zM420 172q16 0 25 8t12 20l19 73h178l-55 -212q-7 -25 -29.5 -43t-48.5 -18h-456q-35 0 -54 23t-10 58l153 596q6 25 29 43t49 18h460q35 0 54 -23.5t10 -58.5l-42 -165
q-7 -26 -27 -51.5t-46 -36.5l-405 -178q-17 -8 -26.5 -16t-9.5 -19q0 -9 6.5 -13.5t16.5 -4.5h197zM416 797h-114l149 166h89l76 -166h-96l-35 77z" />
    <glyph glyph-name="edieresis" unicode="&#xeb;" horiz-adv-x="683" 
d="M271 436q-5 -17 3.5 -23t25.5 2l222 97q17 8 26 16t9 20q0 19 -23 19h-201q-12 0 -23 -9t-14 -21zM420 172q16 0 25 8t12 20l19 73h178l-55 -212q-7 -25 -29.5 -43t-48.5 -18h-456q-35 0 -54 23t-10 58l153 596q6 25 29 43t49 18h460q35 0 54 -23.5t10 -58.5l-42 -165
q-7 -26 -27 -51.5t-46 -36.5l-405 -178q-17 -8 -26.5 -16t-9.5 -19q0 -9 6.5 -13.5t16.5 -4.5h197zM338 923h130l-32 -125h-132zM536 923h130l-32 -125h-131z" />
    <glyph glyph-name="iacute" unicode="&#xed;" horiz-adv-x="271" 
d="M168 1h-180l190 739h178zM453 851l-261 -61l33 130l261 62z" />
    <glyph glyph-name="igrave" unicode="&#xec;" horiz-adv-x="271" 
d="M167 1h-179l190 739h178zM371 793l-229 80l31 119l229 -81z" />
    <glyph glyph-name="icircumflex" unicode="&#xee;" horiz-adv-x="271" 
d="M167 0h-179l189 738h179zM230 797h-115l149 166h89l76 -166h-96l-34 77z" />
    <glyph glyph-name="idieresis" unicode="&#xef;" horiz-adv-x="271" 
d="M168 1h-179l189 739h180zM141 924h130l-32 -125h-130zM339 924h130l-32 -125h-130z" />
    <glyph glyph-name="ntilde" unicode="&#xf1;" horiz-adv-x="714" 
d="M613 738h180l-189 -738h-218l-106 441l-113 -441h-179l190 738h204l112 -471zM460 831q-14 5 -21 0.5t-11 -16.5l-5 -17h-87l13 51q11 42 44.5 62t94.5 0l75 -25q14 -5 21 -0.5t11 16.5l6 18h86l-13 -51q-5 -21 -16 -37t-28 -25t-40.5 -10t-53.5 9z" />
    <glyph glyph-name="oacute" unicode="&#xf3;" 
d="M211 198q-3 -11 3 -18.5t17 -7.5h190q12 0 23 8.5t14 19.5l87 340q3 11 -3 19t-17 8h-191q-12 0 -23 -9.5t-14 -20.5zM600 61q-6 -25 -29 -43t-49 -18h-458q-34 0 -52.5 23t-9.5 58l153 596q6 25 29 43t49 18h456q35 0 54 -23.5t10 -58.5zM635 854l-279 -65l33 130
l279 65z" />
    <glyph glyph-name="ograve" unicode="&#xf2;" 
d="M211 198q-3 -11 3 -18.5t18 -7.5h190q12 0 22.5 8.5t13.5 19.5l88 340q3 11 -3 19t-18 8h-191q-12 0 -22.5 -9.5t-13.5 -20.5zM602 61q-6 -25 -29.5 -43t-50.5 -18h-456q-35 0 -53.5 23.5t-10.5 57.5l153 596q6 25 29 43t49 18h458q35 0 53.5 -24t10.5 -58zM610 789
l-260 74l30 115l259 -74z" />
    <glyph glyph-name="ocircumflex" unicode="&#xf4;" 
d="M211 198q-3 -11 3 -18.5t17 -7.5h190q12 0 23 8.5t14 19.5l87 340q3 11 -3 19t-17 8h-191q-12 0 -23 -9.5t-14 -20.5zM600 61q-6 -25 -29 -43t-49 -18h-456q-35 0 -54 23t-10 58l153 596q6 25 29 43t49 18h456q35 0 54 -23.5t10 -58.5zM437 797h-115l149 166h89l75 -166
h-94l-35 77z" />
    <glyph glyph-name="odieresis" unicode="&#xf6;" 
d="M211 198q-3 -11 3 -18.5t17 -7.5h190q12 0 23 8.5t14 19.5l87 340q3 11 -3 19t-17 8h-191q-12 0 -23 -9.5t-14 -20.5zM600 61q-6 -25 -29 -43t-49 -18h-456q-35 0 -54 23t-10 58l153 596q6 25 29 43t49 18h458q34 0 52.5 -23.5t9.5 -58.5zM360 923h130l-32 -125h-130z
M558 923h130l-32 -125h-130z" />
    <glyph glyph-name="otilde" unicode="&#xf5;" 
d="M211 198q-3 -11 3 -18.5t17 -7.5h190q12 0 23 8.5t14 19.5l87 340q3 11 -3 19t-17 8h-191q-12 0 -23 -9.5t-14 -20.5zM600 61q-6 -25 -29 -43t-49 -18h-456q-35 0 -54 23t-10 58l153 596q6 25 29 43t49 18h456q35 0 54 -23.5t10 -58.5zM453 831q-14 5 -21 0.5t-11 -16.5
l-5 -17h-87l13 51q11 42 44.5 62t94.5 0l75 -25q14 -5 21 -0.5t11 16.5l6 18h86l-13 -51q-5 -21 -16 -37t-28 -25t-40.5 -10t-53.5 9z" />
    <glyph glyph-name="uacute" unicode="&#xfa;" horiz-adv-x="693" 
d="M604 61q-6 -25 -29 -43t-50 -18h-457q-35 0 -53 23.5t-10 57.5l168 657h179l-139 -540q-3 -11 3.5 -18.5t18.5 -7.5h189q13 0 23.5 8t13.5 20l138 538h178zM638 854l-280 -65l34 130l279 65z" />
    <glyph glyph-name="ugrave" unicode="&#xf9;" horiz-adv-x="693" 
d="M604 61q-6 -25 -29 -43t-50 -18h-457q-35 0 -53 23.5t-10 57.5l168 657h179l-139 -540q-3 -11 3.5 -18.5t18.5 -7.5h189q13 0 23.5 8t13.5 20l138 538h178zM612 789l-260 74l29 115l261 -74z" />
    <glyph glyph-name="ucircumflex" unicode="&#xfb;" horiz-adv-x="693" 
d="M604 61q-6 -25 -29 -43t-50 -18h-457q-35 0 -53 23.5t-10 57.5l168 657h179l-139 -540q-3 -11 3.5 -18.5t18.5 -7.5h189q13 0 23.5 8t13.5 20l138 538h178zM438 797h-113l149 166h88l76 -166h-95l-34 78z" />
    <glyph glyph-name="udieresis" unicode="&#xfc;" horiz-adv-x="693" 
d="M604 61q-6 -25 -29 -43t-50 -18h-457q-35 0 -53 23.5t-10 57.5l168 657h179l-139 -540q-3 -11 3.5 -18.5t18.5 -7.5h189q13 0 23.5 8t13.5 20l138 538h178zM362 923h131l-32 -125h-132zM560 923h131l-32 -125h-132z" />
    <glyph glyph-name="dagger" unicode="&#x2020;" horiz-adv-x="381" 
d="M440 622l-26 -103h-96l-30 -118l-30 -118h-108l61 236h-95l26 103h95l30 115h107q-9 -32 -15 -58q-3 -11 -5.5 -21l-4.5 -18q-3 -10 -5 -18h96z" />
    <glyph glyph-name="degree" unicode="&#xb0;" horiz-adv-x="345" 
d="M315 636q3 14 -10 14h-55q-10 0 -13 -10l-28 -104q-2 -6 2 -10.5t10 -4.5h54q4 0 8.5 3t5.5 7zM145 434q-22 0 -33.5 14.5t-6.5 35.5l55 213q5 17 19.5 29t31.5 12h169q22 0 33.5 -15t6.5 -37l-54 -211q-5 -17 -20.5 -29t-33.5 -12h-167z" />
    <glyph glyph-name="cent" unicode="&#xa2;" horiz-adv-x="443" 
d="M284 684h107l-24 -93h78q20 0 31 -15t6 -35l-31 -121h-107l13 51q4 16 -12 16h-114q-7 0 -13.5 -4.5t-8.5 -11.5l-53 -205q-2 -6 2 -11t11 -5h113q7 0 14 5t9 12l12 51h108l-35 -133q-5 -16 -18 -26.5t-28 -10.5h-90l-25 -95h-107l24 95h-76q-21 0 -32.5 14.5t-6.5 34.5
l92 356q4 15 18 26.5t30 11.5h89z" />
    <glyph glyph-name="sterling" unicode="&#xa3;" horiz-adv-x="473" 
d="M115 527q-2 26 14.5 45t42.5 19h274q20 0 31 -15t6 -35l-25 -98h-107l7 28q4 16 -12 16h-112q-7 0 -12 -4.5t-4 -11.5l2 -28q0 -5 0.5 -10t0.5 -9t1 -8h97l-25 -98h-63q0 -52 -47 -68h129q7 0 13.5 5t8.5 12l12 51l96 -45l-23 -88q-5 -16 -18 -26.5t-28 -10.5h-278
q-20 0 -31 14.5t-6 34.5l13 54q28 1 46 16.5t14 50.5h-64l25 98h31z" />
    <glyph glyph-name="section" unicode="&#xa7;" horiz-adv-x="674" 
d="M376 738q1 6 4 14q2 7 4.5 15.5t4.5 17.5l12 48h178l-24 -95h124q35 0 53 -25t10 -57l-44 -171h-179l15 55q3 11 -3.5 19t-18.5 8h-190q-13 0 -20 -5.5t-9 -12.5q-5 -21 14 -34l123 -83l-35 -137l-158 -70q-17 -8 -26.5 -15.5t-9.5 -19.5q0 -9 6.5 -13.5t16.5 -4.5h186
q12 0 22.5 8.5t13.5 19.5l21 83h180l-58 -222q-7 -25 -29.5 -43t-49.5 -18h-144l-24 -94h-180l24 94h-121q-35 0 -53.5 23t-9.5 58l43 166q7 25 27.5 50.5t46.5 36.5l99 44l-66 45q-23 16 -34.5 42.5t-4.5 51.5l42 160q7 25 29.5 43t49.5 18h142z" />
    <glyph glyph-name="bullet" unicode="&#x2022;" horiz-adv-x="248" 
d="M207 233h-177l44 172h178z" />
    <glyph glyph-name="paragraph" unicode="&#xb6;" horiz-adv-x="704" 
d="M588 560q2 6 -1.5 10.5t-9.5 4.5h-50q-6 0 -10.5 -4.5t-6.5 -10.5l-144 -560h-160l77 301q6 23 -17 38l-122 80q-25 16 -35 42t-2 55l42 161q7 26 30 43.5t49 17.5h481q34 0 53 -23.5t10 -58.5l-168 -656h-160z" />
    <glyph glyph-name="registered" unicode="&#xae;" horiz-adv-x="764" 
d="M353 383l140 71q9 5 12 9.5t5 8.5q2 6 -2 8.5t-11 2.5h-118zM482 340l8 -36q4 -16 9 -37q5 -12 16 -12h52l-25 -98h-83q-15 0 -28.5 10.5t-16.5 24.5l-23 102l-70 -35l-27 -102h-102l109 426h291q20 0 31.5 -14t6.5 -34l-27 -104q-5 -17 -16.5 -30t-26.5 -21zM294 634
q-18 0 -33 -12t-20 -29l-115 -449q-5 -17 4.5 -28.5t26.5 -11.5h382q17 0 32 11.5t20 28.5l116 449q5 17 -4.5 29t-27.5 12h-381zM64 0q-34 0 -52.5 23t-9.5 58l153 596q6 25 29 43t49 18h535q35 0 53.5 -24t10.5 -58l-153 -595q-6 -25 -29.5 -43t-49.5 -18h-536z" />
    <glyph glyph-name="copyright" unicode="&#xa9;" horiz-adv-x="764" 
d="M578 319l-32 -127q-4 -14 -18 -24.5t-29 -10.5h-263q-20 0 -30.5 14t-5.5 33l88 343q4 15 17 25.5t28 10.5h263q20 0 31.5 -14t6.5 -34l-31 -116h-102l12 49q3 15 -12 15h-109q-7 0 -13.5 -4.5t-8.5 -11.5l-50 -196q-2 -7 2 -11.5t10 -4.5h110q7 0 12.5 5t7.5 11l13 48
h103zM294 634q-18 0 -33 -12t-20 -29l-115 -449q-5 -17 4.5 -28.5t26.5 -11.5h382q17 0 32 11.5t20 28.5l116 449q5 17 -4.5 29t-27.5 12h-381zM64 0q-34 0 -52.5 23t-9.5 58l153 596q6 25 29 43t49 18h535q35 0 53.5 -24t10.5 -58l-153 -595q-6 -25 -29.5 -43t-49.5 -18
h-536z" />
    <glyph glyph-name="trademark" unicode="&#x2122;" horiz-adv-x="829" 
d="M579 738q5 0 5 -4l5 -216h1q1 -1 1 0l90 216q1 4 7 4h100q6 0 6 -6l-16 -363q0 -6 -8 -6h-80q-5 0 -5 4l9 210l-87 -210q0 -4 -7 -4h-76q-4 0 -4 2l-5 204l-81 -202q-1 -4 -7 -4h-90q-4 0 -3 4l115 284h-124l-73 -284q-1 -4 -4 -4h-86q-3 0 -2 4l73 284h-108q-5 0 -2 3
l20 80q1 4 4 4h432z" />
    <glyph glyph-name="acute" unicode="&#xb4;" 
d="M634 855l-281 -65l34 130l280 66z" />
    <glyph glyph-name="dieresis" unicode="&#xa8;" 
d="M357 923h131l-32 -125h-131zM555 923h131l-32 -125h-130z" />
    <glyph glyph-name="AE" unicode="&#xc6;" horiz-adv-x="1015" 
d="M517 343l58 224h-60q-18 0 -29.5 -8.5t-18.5 -19.5l-117 -196h167zM962 455l-45 -172h-236l-22 -85q-3 -11 3.5 -18.5t17.5 -7.5h299l-45 -172h-420q-35 0 -53.5 23.5t-10.5 57.5l23 91h-225l-103 -172h-200l403 674q16 26 44 45t67 19h665l-44 -171h-296
q-13 0 -23.5 -9.5t-13.5 -20.5l-21 -82h236z" />
    <glyph glyph-name="Oslash" unicode="&#xd8;" 
d="M345 172h76q12 0 22.5 8.5t13.5 19.5l88 340q3 11 -2 18t-14 9zM410 567h-76q-13 0 -23.5 -9.5t-13.5 -20.5l-88 -339q-2 -10 3 -17t15 -9zM689 738q35 0 53.5 -24t10.5 -58l-153 -595q-6 -25 -29 -43t-49 -18h-257l-40 -85h-118l40 85h-83q-35 0 -53 23t-9 58l152 596
q6 25 29.5 43t49.5 18h256l40 85h119l-39 -85h80z" />
    <glyph glyph-name="plusminus" unicode="&#xb1;" horiz-adv-x="248" 
d="M207 233h-177l44 172h178z" />
    <glyph glyph-name="yen" unicode="&#xa5;" horiz-adv-x="475" 
d="M390 290l-13 -55h-88l-22 -87h-107l22 87h-92l13 55h93l9 35h-93l15 54h77l-72 212h111l43 -136l108 136h133l-177 -212h63l-13 -54h-88l-9 -35h87z" />
    <glyph glyph-name="mu" unicode="&#xb5;" horiz-adv-x="248" 
d="M207 233h-177l44 172h178z" />
    <glyph glyph-name="mu" unicode="&#x3bc;" horiz-adv-x="248" 
d="M207 233h-177l44 172h178z" />
    <glyph glyph-name="ordfeminine" unicode="&#xaa;" horiz-adv-x="248" 
d="M207 233h-177l44 172h178z" />
    <glyph glyph-name="ordmasculine" unicode="&#xba;" horiz-adv-x="248" 
d="M207 233h-177l44 172h178z" />
    <glyph glyph-name="ae" unicode="&#xe6;" horiz-adv-x="1005" 
d="M517 343l58 224h-60q-18 0 -29.5 -8.5t-18.5 -19.5l-117 -196h167zM962 455l-45 -172h-236l-22 -85q-3 -11 3.5 -18.5t17.5 -7.5h299l-45 -172h-420q-35 0 -53.5 23.5t-10.5 57.5l23 91h-225l-103 -172h-200l403 674q16 26 44 45t67 19h665l-44 -171h-296
q-13 0 -23.5 -9.5t-13.5 -20.5l-21 -82h236z" />
    <glyph glyph-name="oslash" unicode="&#xf8;" 
d="M345 172h76q12 0 22.5 8.5t13.5 19.5l88 340q3 11 -2 18t-14 9zM410 567h-76q-13 0 -23.5 -9.5t-13.5 -20.5l-88 -339q-2 -10 3 -17t15 -9zM689 738q35 0 53.5 -24t10.5 -58l-153 -595q-6 -25 -29 -43t-49 -18h-257l-40 -85h-118l40 85h-83q-35 0 -53 23t-9 58l152 596
q6 25 29.5 43t49.5 18h256l40 85h119l-39 -85h80z" />
    <glyph glyph-name="questiondown" unicode="&#xbf;" horiz-adv-x="689" 
d="M47 250q7 26 28 50.5t45 35.5l165 73q16 7 24 16t12 23l12 47h179l-27 -107q-6 -25 -27 -50t-47 -36l-173 -76q-17 -8 -26 -16t-9 -20q0 -19 22 -19h201q12 0 23 9.5t14 20.5l14 52h178l-49 -192q-6 -25 -29.5 -43t-49.5 -18h-460q-35 0 -54 24t-10 58zM395 738h180
l-44 -172h-179z" />
    <glyph glyph-name="exclamdown" unicode="&#xa1;" horiz-adv-x="260" 
d="M165 0h-180l128 493h178zM175 738h179l-44 -172h-178z" />
    <glyph glyph-name="logicalnot" unicode="&#xac;" horiz-adv-x="248" 
d="M207 233h-177l44 172h178z" />
    <glyph glyph-name="florin" unicode="&#x192;" horiz-adv-x="304" 
d="M100 398l15 56h40l25 98q4 15 18 26t30 11h126l-13 -56h-44q-6 0 -11.5 -3t-7.5 -10l-17 -66h41l-14 -56h-41l-55 -214q-4 -15 -18 -26.5t-29 -11.5h-127l14 56h43q14 0 18 13l47 183h-40z" />
    <glyph glyph-name="guillemotleft" unicode="&#xab;" horiz-adv-x="498" 
d="M250 181h-135l-33 217l97 159h149l-106 -175zM443 181h-135l-29 191l112 185h150l-124 -201z" />
    <glyph glyph-name="guillemotright" unicode="&#xbb;" horiz-adv-x="498" 
d="M123 557h135l28 -191l-111 -185h-149l122 201zM316 557h134l33 -218l-96 -158h-150l108 174z" />
    <glyph glyph-name="ellipsis" unicode="&#x2026;" horiz-adv-x="930" 
d="M24 172h178l-44 -172h-178zM342 172h178l-44 -172h-178zM660 172h178l-44 -172h-178z" />
    <glyph glyph-name="Agrave" unicode="&#xc0;" horiz-adv-x="695" 
d="M528 464l10 38q4 17 10 39q3 11 -2.5 19t-16.5 8h-191q-12 0 -23 -9t-14 -20l-55 -215zM164 1h-179l174 677q6 25 29 43.5t49 18.5h458q34 0 52.5 -24t9.5 -59l-167 -656h-180l67 260q-79 -39 -141 -70l-142 -70zM614 790l-260 75l30 114l259 -73z" />
    <glyph glyph-name="Atilde" unicode="&#xc3;" horiz-adv-x="695" 
d="M549 541q3 11 -3 19t-17 8h-190q-12 0 -23.5 -9t-14.5 -20l-55 -215l283 141zM163 1h-178l174 677q6 25 29.5 43.5t49.5 18.5h456q35 0 54 -24t10 -59l-169 -656h-179l67 261l-283 -142zM457 833q-15 5 -22.5 1.5t-10.5 -17.5l-4 -18h-87l14 51q11 42 44 62t94 0l76 -25
q26 -8 32 16l4 17h86l-12 -50q-11 -44 -44.5 -63.5t-93.5 0.5z" />
    <glyph glyph-name="Otilde" unicode="&#xd5;" 
d="M211 198q-3 -11 3 -18.5t17 -7.5h190q12 0 23 8.5t14 19.5l87 340q3 11 -3 19t-17 8h-191q-12 0 -23 -9.5t-14 -20.5zM600 61q-6 -25 -29 -43t-49 -18h-456q-35 0 -54 23t-10 58l153 596q6 25 29 43t49 18h456q35 0 54 -23.5t10 -58.5zM453 831q-14 5 -21 0.5t-11 -16.5
l-5 -17h-87l13 51q11 42 44.5 62t94.5 0l75 -25q14 -5 21 -0.5t11 16.5l6 18h86l-13 -51q-5 -21 -16 -37t-28 -25t-40.5 -10t-53.5 9z" />
    <glyph glyph-name="OE" unicode="&#x152;" horiz-adv-x="1047" 
d="M210 198q-3 -11 4 -18.5t18 -7.5h190q12 0 23 8.5t14 19.5l86 340q3 11 -2.5 19t-16.5 8h-191q-12 0 -23 -9.5t-14 -20.5zM994 455l-44 -172h-289l-22 -85q-3 -11 3 -18.5t18 -7.5h351l-44 -172h-388q-29 0 -47 17t-18 44q-7 -26 -30.5 -43.5t-49.5 -17.5h-369
q-35 0 -53 23t-9 58l151 596q6 25 30 43t50 18h369q29 0 47 -17.5t18 -43.5q7 25 30.5 43t49.5 18h408l-44 -171h-350q-12 0 -22.5 -9.5t-13.5 -20.5l-21 -82h289z" />
    <glyph glyph-name="oe" unicode="&#x153;" horiz-adv-x="1047" 
d="M210 198q-3 -11 4 -18.5t18 -7.5h190q12 0 23 8.5t14 19.5l86 340q3 11 -2.5 19t-16.5 8h-191q-12 0 -23 -9.5t-14 -20.5zM994 455l-44 -172h-289l-22 -85q-3 -11 3 -18.5t18 -7.5h351l-44 -172h-388q-29 0 -47 17t-18 44q-7 -26 -30.5 -43.5t-49.5 -17.5h-369
q-35 0 -53 23t-9 58l151 596q6 25 30 43t50 18h369q29 0 47 -17.5t18 -43.5q7 25 30.5 43t49.5 18h408l-44 -171h-350q-12 0 -22.5 -9.5t-13.5 -20.5l-21 -82h289z" />
    <glyph glyph-name="endash" unicode="&#x2013;" horiz-adv-x="667" 
d="M630 246h-597l40 157h597z" />
    <glyph glyph-name="emdash" unicode="&#x2014;" horiz-adv-x="841" 
d="M803 246h-770l41 157h770z" />
    <glyph glyph-name="quotedblleft" unicode="&#x201c;" horiz-adv-x="502" 
d="M229 738h100l-81 -89h77l-44 -173h-177l44 173zM472 738h100l-81 -89h77l-44 -173h-177l44 173z" />
    <glyph glyph-name="quotedblright" unicode="&#x201d;" horiz-adv-x="502" 
d="M223 476h-100l80 91h-77l45 171h177l-44 -171zM467 476h-101l81 91h-77l43 171h179l-44 -171z" />
    <glyph glyph-name="quoteleft" unicode="&#x2018;" horiz-adv-x="261" 
d="M229 738h101l-81 -89h77l-44 -173h-178l44 173z" />
    <glyph glyph-name="quoteright" unicode="&#x2019;" horiz-adv-x="261" 
d="M225 476h-102l82 91h-78l44 171h179l-44 -171z" />
    <glyph glyph-name="divide" unicode="&#xf7;" horiz-adv-x="248" 
d="M207 233h-177l44 172h178z" />
    <glyph glyph-name="ydieresis" unicode="&#xff;" 
d="M295 544q-2 -9 1 -18t15 -17l158 -103q14 -8 24.5 -4.5t15.5 20.5l83 316h177l-173 -677q-6 -25 -29.5 -43t-50.5 -18h-456q-35 0 -54 23t-10 58l49 190h178l-18 -73q-3 -12 3 -19t18 -7h189q13 0 21.5 4.5t11.5 16.5q6 23 -17 37l-286 189q-25 17 -35 42.5t-2 54.5
l57 222h179zM350 923h130l-32 -125h-132zM548 923h130l-32 -125h-131z" />
    <glyph glyph-name="Ydieresis" unicode="&#x178;" horiz-adv-x="671" 
d="M273 265q-41 -19 -81 -20t-71 12t-47 38t-7 60l97 383h181l-75 -292l264 123l44 169h177l-173 -677q-6 -25 -29.5 -43t-50.5 -18h-526l43 172h384q12 0 22 8t13 20l42 162zM333 923h130l-32 -125h-132zM531 923h130l-32 -125h-131z" />
    <glyph glyph-name="currency" unicode="&#xa4;" horiz-adv-x="492" 
d="M80 390l15 54h74l14 54l14 54q4 15 18 26t30 11h298l-64 -102h-176q-6 0 -11.5 -4t-7.5 -11l-4 -14l-4 -14h178l-34 -54h-157l-11 -43h141l-33 -56h-122l-6 -25q-4 -16 12 -16h190l-26 -104h-264q-21 0 -31.5 15t-5.5 35l24 95h-76l15 56h75l11 43h-76z" />
    <glyph glyph-name="guilsinglleft" unicode="&#x2039;" horiz-adv-x="295" 
d="M239 181h-134l-29 191l112 185h150l-122 -201z" />
    <glyph glyph-name="guilsinglright" unicode="&#x203a;" horiz-adv-x="295" 
d="M123 557h135l30 -191l-112 -185h-150l122 201z" />
    <glyph glyph-name="daggerdbl" unicode="&#x2021;" horiz-adv-x="248" 
d="M207 233h-177l44 172h178z" />
    <glyph glyph-name="periodcentered" unicode="&#xb7;" horiz-adv-x="248" 
d="M207 233h-177l44 172h178z" />
    <glyph glyph-name="periodcentered" unicode="&#x2219;" horiz-adv-x="248" 
d="M207 233h-177l44 172h178z" />
    <glyph glyph-name="quotesinglbase" unicode="&#x201a;" horiz-adv-x="261" 
d="M85 -92h-102l82 91h-78l44 171h179l-44 -171z" />
    <glyph glyph-name="quotedblbase" unicode="&#x201e;" horiz-adv-x="502" 
d="M71 -92h-100l80 91h-77l45 171h177l-44 -171zM315 -92h-101l81 91h-77l43 171h179l-44 -171z" />
    <glyph glyph-name="perthousand" unicode="&#x2030;" horiz-adv-x="248" 
d="M207 233h-177l44 172h178z" />
    <glyph glyph-name="Acircumflex" unicode="&#xc2;" horiz-adv-x="695" 
d="M528 464l10 38q4 17 10 39q3 11 -2.5 19t-16.5 8h-191q-12 0 -23 -9t-14 -20l-55 -215zM164 1h-179l174 677q6 25 29 43.5t49 18.5h458q34 0 52.5 -24t9.5 -59l-167 -656h-180l67 260q-79 -39 -141 -70l-142 -70zM441 798h-115l149 165h89l76 -165h-95l-35 77z" />
    <glyph glyph-name="Ecircumflex" unicode="&#xca;" horiz-adv-x="621" 
d="M568 455l-44 -172h-291l-22 -85q-3 -11 3 -18.5t17 -7.5h354l-44 -172h-476q-35 0 -53 23t-9 58l151 596q6 25 30 43t50 18h496l-44 -171h-351q-12 0 -23 -9.5t-14 -20.5l-21 -82h291zM416 797h-114l149 166h89l76 -166h-96l-35 77z" />
    <glyph glyph-name="Aacute" unicode="&#xc1;" horiz-adv-x="695" 
d="M528 464l10 38q4 17 10 39q3 11 -2.5 19t-16.5 8h-191q-12 0 -23 -9t-14 -20l-55 -215zM164 1h-179l174 677q6 25 29 43.5t49 18.5h458q34 0 52.5 -24t9.5 -59l-167 -656h-180l67 260q-79 -39 -141 -70l-142 -70zM639 855l-281 -65l34 130l280 66z" />
    <glyph glyph-name="Edieresis" unicode="&#xcb;" horiz-adv-x="621" 
d="M568 455l-44 -172h-291l-22 -85q-3 -11 3 -18.5t17 -7.5h354l-44 -172h-476q-35 0 -53 23t-9 58l151 596q6 25 30 43t50 18h496l-44 -171h-351q-12 0 -23 -9.5t-14 -20.5l-21 -82h291zM338 923h130l-32 -125h-132zM536 923h130l-32 -125h-131z" />
    <glyph glyph-name="Egrave" unicode="&#xc8;" horiz-adv-x="621" 
d="M568 455l-44 -172h-292l-22 -85q-3 -11 3.5 -18.5t17.5 -7.5h354l-44 -172h-476q-35 0 -53 23t-9 58l151 596q6 25 30 43t50 18h496l-44 -171h-351q-12 0 -23 -9.5t-14 -20.5l-21 -82h291zM612 789l-261 74l29 115l261 -74z" />
    <glyph glyph-name="Iacute" unicode="&#xcd;" horiz-adv-x="278" 
d="M168 1h-180l190 739h178zM453 851l-261 -61l33 130l261 62z" />
    <glyph glyph-name="Icircumflex" unicode="&#xce;" horiz-adv-x="278" 
d="M167 0h-179l189 738h179zM230 797h-115l149 166h89l76 -166h-96l-34 77z" />
    <glyph glyph-name="Idieresis" unicode="&#xcf;" horiz-adv-x="278" 
d="M168 1h-179l189 739h180zM141 924h130l-32 -125h-130zM339 924h130l-32 -125h-130z" />
    <glyph glyph-name="Igrave" unicode="&#xcc;" horiz-adv-x="278" 
d="M167 1h-179l190 739h178zM371 793l-229 80l31 119l229 -81z" />
    <glyph glyph-name="Oacute" unicode="&#xd3;" 
d="M211 198q-3 -11 3 -18.5t17 -7.5h190q12 0 23 8.5t14 19.5l87 340q3 11 -3 19t-17 8h-191q-12 0 -23 -9.5t-14 -20.5zM600 61q-6 -25 -29 -43t-49 -18h-458q-34 0 -52.5 23t-9.5 58l153 596q6 25 29 43t49 18h456q35 0 54 -23.5t10 -58.5zM635 854l-279 -65l33 130
l279 65z" />
    <glyph glyph-name="Ocircumflex" unicode="&#xd4;" 
d="M211 198q-3 -11 3 -18.5t17 -7.5h190q12 0 23 8.5t14 19.5l87 340q3 11 -3 19t-17 8h-191q-12 0 -23 -9.5t-14 -20.5zM600 61q-6 -25 -29 -43t-49 -18h-456q-35 0 -54 23t-10 58l153 596q6 25 29 43t49 18h456q35 0 54 -23.5t10 -58.5zM437 797h-115l149 166h89l75 -166
h-94l-35 77z" />
    <glyph glyph-name="Ograve" unicode="&#xd2;" 
d="M211 198q-3 -11 3 -18.5t18 -7.5h190q12 0 22.5 8.5t13.5 19.5l88 340q3 11 -3 19t-18 8h-191q-12 0 -22.5 -9.5t-13.5 -20.5zM602 61q-6 -25 -29.5 -43t-50.5 -18h-456q-35 0 -53.5 23.5t-10.5 57.5l153 596q6 25 29 43t49 18h458q35 0 53.5 -24t10.5 -58zM610 789
l-260 74l30 115l259 -74z" />
    <glyph glyph-name="Uacute" unicode="&#xda;" horiz-adv-x="693" 
d="M605 61q-6 -25 -29 -43t-50 -18h-457q-35 0 -53 23.5t-10 57.5l168 657h179l-139 -540q-3 -11 3.5 -18.5t18.5 -7.5h189q13 0 23.5 8t13.5 20l138 538h178zM639 854l-280 -65l34 130l279 65z" />
    <glyph glyph-name="Ucircumflex" unicode="&#xdb;" horiz-adv-x="693" 
d="M605 61q-6 -25 -29 -43t-50 -18h-457q-35 0 -53 23.5t-10 57.5l168 657h179l-139 -540q-3 -11 3.5 -18.5t18.5 -7.5h189q13 0 23.5 8t13.5 20l138 538h178zM439 797h-113l149 166h88l76 -166h-95l-34 78z" />
    <glyph glyph-name="Ugrave" unicode="&#xd9;" horiz-adv-x="693" 
d="M605 61q-6 -25 -29 -43t-50 -18h-457q-35 0 -53 23.5t-10 57.5l168 657h179l-139 -540q-3 -11 3.5 -18.5t18.5 -7.5h189q13 0 23.5 8t13.5 20l138 538h178zM613 789l-260 74l29 115l261 -74z" />
    <glyph glyph-name="circumflex" unicode="&#x2c6;" 
d="M436 798h-115l149 165h89l76 -165h-95l-35 77z" />
    <glyph glyph-name="tilde" unicode="&#x2dc;" horiz-adv-x="686" 
d="M452 833q-15 5 -22.5 1.5t-10.5 -17.5l-4 -18h-87l14 51q11 42 44 62t94 0l76 -25q26 -8 32 16l4 17h86l-12 -50q-11 -44 -44.5 -63.5t-93.5 0.5z" />
    <glyph glyph-name="macron" unicode="&#xaf;" horiz-adv-x="248" 
d="M207 233h-177l44 172h178z" />
    <glyph glyph-name="macron" unicode="&#x2c9;" horiz-adv-x="248" 
d="M207 233h-177l44 172h178z" />
    <glyph glyph-name="cedilla" unicode="&#xb8;" horiz-adv-x="248" 
d="M207 233h-177l44 172h178z" />
    <glyph glyph-name="quotedbl" unicode="&#x22;" horiz-adv-x="496" 
d="M233 496h-126l62 242h185zM466 496h-127l62 242h184z" />
    <glyph glyph-name="exclam" unicode="!" horiz-adv-x="260" 
d="M159 0h-179l44 172h178zM169 738h180l-128 -493h-178z" />
  </font>
</defs>
</svg>
